<?xml version="1.0" encoding="UTF-8" standalone="no" ?>
<!DOCTYPE svg PUBLIC "-//W3C//DTD SVG 1.1//EN" "http://www.w3.org/Graphics/SVG/1.1/DTD/svg11.dtd">
<svg xmlns="http://www.w3.org/2000/svg" xmlns:xlink="http://www.w3.org/1999/xlink" version="1.1" width="1024"
	height="1024" viewBox="0 0 1024 1024" xml:space="preserve">
	<desc>Created with Fabric.js 3.6.3</desc>
	<defs>
	</defs>
	<g transform="matrix(1.2,0,0,1.2,333.8,521.5)" id="logo-logo">
		<g style="" paint-order="stroke">
			<g transform="matrix(1,0,0,-1,0,0)">
				<path
					style="fill: rgb(255, 255, 255); fill-rule: nonzero; stroke: none; stroke-dasharray: none; stroke-dashoffset: 0; stroke-linecap: butt; stroke-linejoin: miter; stroke-width: 1; opacity: 1; stroke-miterlimit: 10"
					paint-order="stroke" transform="translate(-1475,-1595.8)"
					d="M 1289.3 1897.6 c 24.8 72.2 82 92.3 161.9 67.7 c 79.5 -24.4 239.5 -106.9 361.4 -185.2 l -233.8 -253.4 c -32.9 16.1 -79.8 10.3 -124.5 -34.4 l -82.8 -82.8 c -24.2 -24.2 5.7 -54.2 29.9 -29.9 l 79.1 79.1 c 12.1 12.1 30.4 -6.2 18.3 -18.3 l -79 -79.1 c -24.2 -24.2 5.6 -54.3 30.1 -29.8 l 78.9 79 c 12.1 12.1 30.4 -6.2 18.3 -18.3 l -79.1 -79.1 c -24.2 -24.2 5.7 -54.2 30 -29.9 l 82.8 82.8 c 42.5 42.5 49.4 88.1 35.4 121.2 l 263.5 247.3 c 28.6 -20.8 52.3 -40.3 68.5 -57.2 c 53.1 -55 53.1 -107.8 0 -162.9 c -85.8 -89 -379.6 -251.9 -497 -288 c -79.9 -24.6 -137.2 -4.4 -161.9 67.7 c -11.1 32.3 -18.8 90.8 -23.1 159.6 c 19.1 16.2 45 38.9 56.5 46.9 c 34.6 24.2 55 1.6 84 9.6 c 58.2 16.1 148.1 191.2 209.8 344.3 c -116.1 -97.4 -235.6 -209.1 -354.1 -308.9 c -2.1 136.6 6.9 293.1 27 351.9"
					stroke-linecap="round" />
			</g>
		</g>
	</g>
</svg>