<?xml version="1.0" encoding="UTF-8" standalone="no" ?>
<!DOCTYPE svg PUBLIC "-//W3C//DTD SVG 1.1//EN" "http://www.w3.org/Graphics/SVG/1.1/DTD/svg11.dtd">
<svg xmlns="http://www.w3.org/2000/svg" xmlns:xlink="http://www.w3.org/1999/xlink" version="1.1" width="1280" height="1024" viewBox="0 0 1280 1024" xml:space="preserve">
<desc>Created with Fabric.js 3.6.3</desc>
<defs>
</defs>
<g transform="matrix(2,0,0,2,640,512)" id="background-logo"  >
<rect style="fill: rgb(40, 39, 76); fill-rule: nonzero; stroke: none; stroke-dasharray: none; stroke-dashoffset: 0; stroke-linecap: butt; stroke-linejoin: miter; stroke-width: 1; opacity: 1; stroke-miterlimit: 4"  paint-order="stroke"  x="-325" y="-260" rx="0" ry="0" width="650" height="520" />
</g>
<g transform="matrix(2,0,0,2,823.2,446.3)" style="filter: url(#SVGID_394982)" id="text-logo" data-is-lettermark="false"  >
<filter id="SVGID_394982" y="-20%" height="140%" x="-20%" width="140%" >
	<feGaussianBlur in="SourceAlpha" stdDeviation="0"></feGaussianBlur>
	<feOffset dx="0" dy="0" result="oBlur" ></feOffset>
	<feFlood flood-color="rgb(0,0,0)" flood-opacity="1"/>
	<feComposite in2="oBlur" operator="in" />
	<feMerge>
		<feMergeNode></feMergeNode>
		<feMergeNode in="SourceGraphic"></feMergeNode>
	</feMerge>
</filter>
		<text xml:space="preserve" font-family="'Noto Sans CJK SC'" font-size="89" font-style="normal" font-weight="normal" style="fill: rgb(255, 255, 255); fill-rule: nonzero; stroke: none; stroke-dasharray: none; stroke-dashoffset: 0; stroke-linecap: butt; stroke-linejoin: miter; stroke-width: 1; opacity: 1; stroke-miterlimit: 10; white-space: pre" paint-order="stroke"  ><tspan x="-122.82" y="27.958460000000002" >맛잇고</tspan></text>
</g>
<g transform="matrix(2,0,0,2,825.9,607.8)" id="tagline-4dcae6c6-271d-4e1b-a22f-712cda2b56da-logo-path"  >
<path style="fill: rgb(255, 255, 255); fill-rule: nonzero; stroke: none; stroke-dasharray: none; stroke-dashoffset: 0; stroke-linecap: butt; stroke-linejoin: miter; stroke-width: 0; opacity: 1; stroke-miterlimit: 4"  paint-order="stroke"  transform="translate(-90.1,13.8)" d="M 11.5 0 L 2.6 0 L 2.6 -3.1 L 5.2 -3.1 L 5.2 -23.9 L 2.6 -23.9 L 2.6 -27.4 L 11.3 -27.4 L 19.9 -3.7 L 28.7 -27.4 L 37 -27.4 L 37 -23.9 L 34.4 -23.9 L 34.4 -3.1 L 37 -3.1 L 37 0 L 28.1 0 L 28.1 -3.1 L 31 -3.1 L 31 -24.1 L 21.4 0 L 18.4 0 L 8.7 -24.2 L 8.7 -3.1 L 11.5 -3.1 L 11.5 0 Z M 40.8 -5 L 40.8 -5 Q 40.8 -6.1 41.2 -7.1 Q 41.5 -8 42.1 -8.7 Q 42.7 -9.3 43.5 -9.8 Q 44.3 -10.3 45.1 -10.5 Q 46 -10.8 46.9 -10.9 Q 47.8 -11.1 48.6 -11.1 L 48.6 -11.1 Q 49.9 -11.1 50.8 -11 Q 51.6 -10.9 52.4 -10.8 L 52.4 -10.8 L 52.4 -12.3 Q 52.4 -13.3 52.1 -14 Q 51.8 -14.7 51.3 -15.2 Q 50.8 -15.7 50 -15.9 Q 49.3 -16.2 48.4 -16.2 L 48.4 -16.2 Q 47.5 -16.2 46.8 -16.1 Q 46 -15.9 45.3 -15.7 Q 44.6 -15.6 44.1 -15.3 Q 43.5 -15.1 43.1 -14.8 L 43.1 -14.8 L 42 -17.1 Q 42.7 -17.6 43.5 -17.9 Q 44.3 -18.3 45.1 -18.6 Q 46 -18.8 46.9 -19 Q 47.8 -19.1 48.7 -19.1 L 48.7 -19.1 Q 50.4 -19.1 51.6 -18.7 Q 53 -18.4 53.9 -17.5 Q 54.8 -16.7 55.3 -15.5 Q 55.7 -14.2 55.7 -12.5 L 55.7 -12.5 L 55.7 -3.1 L 57.8 -3.1 L 57.8 0 L 52.4 0 L 52.4 -1.7 Q 51.3 -0.7 50 -0.1 Q 48.7 0.5 47.1 0.5 L 47.1 0.5 Q 45.7 0.5 44.5 0.1 Q 43.4 -0.3 42.6 -1.1 Q 41.7 -1.8 41.3 -2.8 Q 40.8 -3.8 40.8 -5 Z M 44.1 -5.3 L 44.1 -5.3 Q 44.1 -4.5 44.3 -4 Q 44.6 -3.4 45.1 -3 Q 45.6 -2.7 46.3 -2.5 Q 47 -2.3 47.8 -2.3 L 47.8 -2.3 Q 48.5 -2.3 49.1 -2.5 Q 49.8 -2.6 50.4 -2.9 Q 51 -3.2 51.5 -3.5 Q 52 -3.9 52.4 -4.3 L 52.4 -4.3 L 52.4 -8.6 L 48.5 -8.6 Q 47.5 -8.6 46.7 -8.3 Q 45.9 -8.1 45.3 -7.7 Q 44.7 -7.3 44.4 -6.7 Q 44.1 -6 44.1 -5.3 Z M 64.6 -25 L 61.4 -25 L 61.4 -28.1 L 68 -28.1 L 68 -25 L 68 -25 L 68 -11 L 71.3 -11 L 75.7 -15.6 L 74.6 -15.6 L 74.6 -18.7 L 81.7 -18.7 L 81.7 -15.6 L 79.3 -15.6 L 73.6 -9.7 L 79.8 -3.1 L 82.1 -3.1 L 82.1 0 L 78.1 0 L 70.5 -8.4 L 68 -8.4 L 68 -3.1 L 69.6 -3.1 L 69.6 0 L 61.5 0 L 61.5 -3.1 L 64.6 -3.1 L 64.6 -25 Z M 83 0 L 83 0 Z M 102.4 0 L 93.7 0 L 93.7 -3.1 L 96.3 -3.1 L 96.3 -24.3 L 93.7 -24.3 L 93.7 -27.4 L 102.4 -27.4 L 102.4 -24.3 L 99.8 -24.3 L 99.8 -3.1 L 102.4 -3.1 L 102.4 0 Z M 108.9 -16 L 105.9 -16 L 105.9 -18.7 L 109 -18.7 L 109 -23.2 L 112.3 -24.8 L 112.3 -18.7 L 116.6 -18.7 L 116.6 -16 L 112.2 -16 L 112.2 -5.2 Q 112.2 -4.1 112.4 -3.4 Q 112.7 -2.7 113.2 -2.5 Q 113.8 -2.2 114.5 -2.2 L 114.5 -2.2 Q 115.3 -2.2 115.8 -2.3 Q 116.4 -2.5 117.1 -2.8 L 117.1 -2.8 L 117.9 -0.5 Q 117 -0.1 116 0.2 Q 115.1 0.5 113.8 0.5 L 113.8 0.5 Q 112.5 0.5 111.6 0.1 Q 110.7 -0.1 110.1 -0.8 Q 109.5 -1.6 109.2 -2.7 Q 108.9 -3.9 108.9 -5.7 L 108.9 -5.7 L 108.9 -16 Z M 118.8 0 L 118.8 0 Z M 128.2 -13.7 L 128.2 -13.7 Q 128.2 -16.7 129.2 -19.3 Q 130.1 -21.9 131.9 -23.8 Q 133.6 -25.7 136 -26.8 Q 138.4 -27.9 141.2 -27.9 L 141.2 -27.9 Q 143.8 -27.9 145.7 -27.2 Q 147.6 -26.4 148.9 -25.4 Q 150.2 -24.3 151 -23.4 L 151 -23.4 L 152.8 -23.4 L 152.8 -20.2 L 148.9 -20.2 Q 147.7 -22.2 145.7 -23.4 L 145.7 -23.4 Q 143.8 -24.6 141.4 -24.6 L 141.4 -24.6 Q 141.3 -24.6 141.2 -24.6 L 141.2 -24.6 Q 139.2 -24.6 137.4 -23.7 Q 135.7 -22.8 134.4 -21.3 Q 133.2 -19.8 132.5 -17.9 Q 131.8 -15.9 131.8 -13.7 L 131.8 -13.7 Q 131.8 -11.3 132.6 -9.3 Q 133.3 -7.2 134.5 -5.9 Q 135.7 -4.6 137.4 -3.8 Q 139.2 -3 141.2 -3 L 141.2 -3 Q 144.7 -3 146.9 -4.7 Q 149.2 -6.3 150 -9.9 L 150 -9.9 L 142.4 -9.9 L 142.4 -13 L 154 -13 L 154 0.1 L 150.6 0.1 L 150.6 -5.4 Q 149.9 -4 148.9 -2.9 Q 147.9 -1.8 146.6 -1.2 Q 145.3 -0.5 143.9 -0.1 Q 142.4 0.2 141 0.2 L 141 0.2 Q 138.3 0.2 136 -0.7 Q 133.8 -1.6 131.9 -3.5 Q 130.1 -5.5 129.2 -8.2 Q 128.2 -10.8 128.2 -13.7 Z M 158.8 -9.4 L 158.8 -9.4 Q 158.9 -11.6 159.6 -13.4 Q 160.3 -15.2 161.5 -16.5 Q 162.7 -17.9 164.5 -18.6 Q 166.2 -19.3 168.2 -19.3 L 168.2 -19.3 Q 170.3 -19.3 172 -18.6 Q 173.8 -17.9 175 -16.6 Q 176.2 -15.3 176.9 -13.4 Q 177.6 -11.6 177.6 -9.4 L 177.6 -9.4 Q 177.6 -7.2 176.9 -5.4 Q 176.2 -3.5 175 -2.2 Q 173.8 -0.9 172 -0.2 Q 170.3 0.6 168.2 0.6 L 168.2 0.6 Q 166.1 0.6 164.4 -0.2 Q 162.7 -0.9 161.5 -2.2 Q 160.2 -3.5 159.5 -5.3 Q 158.9 -7.2 158.8 -9.4 Z M 162.4 -9.4 L 162.4 -9.4 Q 162.4 -7.8 162.9 -6.5 Q 163.3 -5.2 164.1 -4.2 Q 164.9 -3.3 166 -2.8 Q 167 -2.3 168.2 -2.3 L 168.2 -2.3 Q 169.5 -2.3 170.6 -2.8 Q 171.6 -3.3 172.4 -4.2 Q 173.2 -5.1 173.7 -6.4 Q 174.1 -7.7 174.1 -9.4 L 174.1 -9.4 Q 174.1 -11.1 173.7 -12.4 Q 173.2 -13.7 172.4 -14.6 Q 171.7 -15.5 170.6 -15.9 Q 169.5 -16.4 168.2 -16.4 L 168.2 -16.4 Q 167 -16.4 166 -15.9 Q 164.9 -15.5 164.1 -14.6 Q 163.3 -13.7 162.9 -12.4 Q 162.4 -11.1 162.4 -9.4 Z" stroke-linecap="round" />
</g>
<g transform="matrix(1.2,0,0,1.2,333.8,521.5)" id="logo-logo"  >
<g style=""  paint-order="stroke"   >
		<g transform="matrix(0.4,0,0,-0.4,0,0)"  >
<path style="fill: rgb(255, 255, 255); fill-rule: nonzero; stroke: none; stroke-dasharray: none; stroke-dashoffset: 0; stroke-linecap: butt; stroke-linejoin: miter; stroke-width: 1; opacity: 1; stroke-miterlimit: 10"  paint-order="stroke"  transform="translate(-1625,-1595.8)" d="M 1289.3 1897.6 c 24.8 72.2 82 92.3 161.9 67.7 c 79.5 -24.4 239.5 -106.9 361.4 -185.2 l -233.8 -253.4 c -32.9 16.1 -79.8 10.3 -124.5 -34.4 l -82.8 -82.8 c -24.2 -24.2 5.7 -54.2 29.9 -29.9 l 79.1 79.1 c 12.1 12.1 30.4 -6.2 18.3 -18.3 l -79 -79.1 c -24.2 -24.2 5.6 -54.3 30.1 -29.8 l 78.9 79 c 12.1 12.1 30.4 -6.2 18.3 -18.3 l -79.1 -79.1 c -24.2 -24.2 5.7 -54.2 30 -29.9 l 82.8 82.8 c 42.5 42.5 49.4 88.1 35.4 121.2 l 263.5 247.3 c 28.6 -20.8 52.3 -40.3 68.5 -57.2 c 53.1 -55 53.1 -107.8 0 -162.9 c -85.8 -89 -379.6 -251.9 -497 -288 c -79.9 -24.6 -137.2 -4.4 -161.9 67.7 c -11.1 32.3 -18.8 90.8 -23.1 159.6 c 19.1 16.2 45 38.9 56.5 46.9 c 34.6 24.2 55 1.6 84 9.6 c 58.2 16.1 148.1 191.2 209.8 344.3 c -116.1 -97.4 -235.6 -209.1 -354.1 -308.9 c -2.1 136.6 6.9 293.1 27 351.9" stroke-linecap="round" />
</g>
</g>
</g>
</svg>